<?xml version="1.0" standalone="no"?>
<!DOCTYPE svg PUBLIC "-//W3C//DTD SVG 20010904//EN"
 "http://www.w3.org/TR/2001/REC-SVG-20010904/DTD/svg10.dtd">
<svg version="1.0" xmlns="http://www.w3.org/2000/svg"
 width="500.000000pt" height="500.000000pt" viewBox="0 0 500.000000 500.000000"
 preserveAspectRatio="xMidYMid meet">
<metadata>
Created by potrace 1.14, written by Peter Selinger 2001-2017
</metadata>
<g transform="translate(0.000000,500.000000) scale(0.100000,-0.100000)"
fill="#000000" stroke="none">
<path d="M2196 4924 c-1227 -163 -2136 -1193 -2136 -2419 0 -324 67 -670 181
-935 l22 -52 104 204 c118 234 157 288 208 288 36 0 55 -20 55 -57 0 -10 -58
-160 -129 -332 -129 -312 -130 -314 -114 -345 25 -48 117 -189 136 -208 24
-24 271 -103 400 -127 66 -13 148 -21 211 -21 78 0 106 -4 116 -15 21 -25 6
-49 -45 -75 -75 -37 -229 -40 -385 -7 -63 14 -116 24 -118 22 -5 -5 202 -198
276 -256 321 -254 707 -425 1129 -501 112 -20 160 -23 393 -23 233 0 281 3
393 23 798 143 1444 622 1792 1327 118 238 191 465 230 715 18 112 32 509 21
556 -7 25 -12 19 -70 -82 -240 -416 -448 -779 -478 -834 -45 -81 -68 -102
-104 -98 -21 2 -31 11 -38 31 -21 58 16 146 286 689 144 290 259 530 255 534
-4 4 -98 11 -210 15 -213 7 -268 16 -311 50 -35 27 -33 73 4 101 37 27 182 40
403 36 103 -1 187 -1 187 1 0 16 -59 192 -92 276 -77 194 -246 487 -350 608
l-33 38 -82 -218 c-81 -214 -237 -682 -367 -1098 -98 -316 -415 -1452 -496
-1774 -38 -156 -78 -338 -87 -405 -14 -97 -22 -125 -39 -143 -30 -30 -60 -20
-76 26 -35 102 9 357 174 1001 306 1199 591 2173 765 2609 l65 166 -78 74
c-44 40 -128 110 -189 156 -327 246 -701 405 -1106 470 -145 24 -527 29 -673
9z m199 -459 c221 -47 458 -199 575 -370 48 -70 108 -202 131 -290 31 -115 37
-338 14 -477 -53 -316 -234 -663 -479 -916 -84 -87 -235 -218 -329 -285 -275
-197 -513 -246 -708 -146 l-37 19 -8 -68 c-4 -37 -5 -268 -2 -514 4 -310 2
-450 -5 -457 -30 -30 -141 12 -198 76 l-37 41 -8 128 c-13 187 -10 828 5 1044
25 374 62 700 121 1050 47 281 89 472 107 492 30 33 109 17 181 -39 62 -47 64
-66 26 -253 -40 -195 -106 -588 -102 -602 2 -5 24 12 48 39 24 26 53 53 63 59
61 35 217 -69 217 -144 0 -15 -25 -50 -73 -100 -95 -101 -138 -161 -187 -263
-66 -138 -89 -305 -47 -347 26 -25 123 -2 242 57 264 131 575 417 740 682 171
275 243 521 232 788 -8 205 -59 343 -169 457 -107 112 -246 163 -441 164 -249
0 -520 -100 -834 -309 -200 -133 -333 -243 -483 -397 -184 -189 -310 -387
-379 -596 l-22 -67 25 -44 c14 -24 26 -49 26 -55 0 -23 -40 -52 -72 -52 -88 0
-176 87 -205 204 -15 61 -15 73 0 148 46 234 313 591 638 852 119 95 345 245
469 310 192 100 402 170 590 196 92 12 281 5 375 -15z m774 -2492 c90 -68 97
-181 21 -338 -47 -97 -111 -171 -176 -207 -76 -40 -104 -43 -147 -13 l-38 25
-30 -68 c-51 -113 -109 -288 -155 -471 -24 -96 -47 -178 -53 -184 -12 -12 -45
-1 -81 30 -22 18 -30 33 -30 56 0 18 32 192 70 387 39 195 70 361 70 368 0 7
-37 -18 -82 -56 -258 -216 -426 -294 -507 -234 -75 55 -90 140 -46 257 57 154
168 265 262 265 64 0 126 -69 115 -126 -7 -39 -93 -126 -181 -183 -55 -37 -80
-59 -84 -77 -6 -34 9 -31 108 21 112 58 259 156 365 242 l85 69 16 75 c27 127
28 129 51 129 32 0 87 -39 94 -66 4 -14 1 -51 -5 -81 -16 -83 -15 -84 33 -12
58 86 147 182 188 203 40 20 101 15 137 -11z"/>
<path d="M3051 1800 c-73 -88 -181 -257 -181 -285 0 -9 55 22 88 50 43 36 99
123 128 201 37 100 28 110 -35 34z"/>
</g>
</svg>
